<?xml version="1.0" encoding="UTF-8"?>
<svg width="213px" height="154px" viewBox="0 0 213 154" version="1.1" xmlns="http://www.w3.org/2000/svg" xmlns:xlink="http://www.w3.org/1999/xlink">
    <!-- Generator: Sketch 48.2 (47327) - http://www.bohemiancoding.com/sketch -->
    <title>Group 3</title>
    <desc>Created with Sketch.</desc>
    <defs>
        <linearGradient x1="50%" y1="-31.7969928%" x2="50%" y2="128.064967%" id="linearGradient-1">
            <stop stop-color="#FFFFFF" offset="0%"></stop>
            <stop stop-color="#8C8C8C" offset="100%"></stop>
        </linearGradient>
        <rect id="path-2" x="34" y="137" width="21" height="8" rx="4"></rect>
        <rect id="path-3" x="156" y="137" width="21" height="8" rx="4"></rect>
        <linearGradient x1="50%" y1="0%" x2="50%" y2="100%" id="linearGradient-4">
            <stop stop-color="#EEEEEE" offset="0%"></stop>
            <stop stop-color="#C3C3C3" offset="100%"></stop>
        </linearGradient>
        <rect id="path-5" x="18" y="82" width="53" height="14" rx="2"></rect>
        <rect id="path-6" x="0" y="0" width="45" height="26" rx="2"></rect>
        <linearGradient x1="50%" y1="0%" x2="50%" y2="100%" id="linearGradient-8">
            <stop stop-color="#EEEEEE" offset="0%"></stop>
            <stop stop-color="#C0BDBD" offset="100%"></stop>
        </linearGradient>
        <rect id="path-9" x="-5" y="4" width="54" height="7" rx="3.5"></rect>
        <rect id="path-10" x="152" y="50" width="30" height="46" rx="2"></rect>
        <linearGradient x1="50%" y1="0%" x2="50%" y2="100%" id="linearGradient-11">
            <stop stop-color="#EEEEEE" offset="0%"></stop>
            <stop stop-color="#B9B9B9" offset="100%"></stop>
        </linearGradient>
        <rect id="path-12" x="154" y="53" width="26" height="35" rx="1"></rect>
        <rect id="path-13" x="163" y="90" width="8" height="3" rx="1.5"></rect>
    </defs>
    <g id="eid认证-鼠标悬停2" stroke="none" stroke-width="1" fill="none" fill-rule="evenodd" transform="translate(-452.000000, -409.000000)">
        <g id="Group-3" transform="translate(453.000000, 410.000000)">
            <rect id="Rectangle-8" stroke="#979797" stroke-width="2" x="0" y="0" width="89" height="152" rx="11"></rect>
            <rect id="Rectangle-8-Copy" stroke="#979797" stroke-width="2" x="122" y="0" width="89" height="152" rx="11"></rect>
            <rect id="Rectangle-7" stroke="#979797" x="4.5" y="9.5" width="80" height="121"></rect>
            <rect id="Rectangle-7-Copy" stroke="#979797" x="126.5" y="9.5" width="80" height="121"></rect>
            <g id="Rectangle-9">
                <use fill="url(#linearGradient-1)" fill-rule="evenodd" xlink:href="#path-2"></use>
                <rect stroke="#979797" stroke-width="1" x="34.5" y="137.5" width="20" height="7" rx="3.5"></rect>
            </g>
            <g id="Rectangle-9-Copy">
                <use fill="url(#linearGradient-1)" fill-rule="evenodd" xlink:href="#path-3"></use>
                <rect stroke="#979797" stroke-width="1" x="156.5" y="137.5" width="20" height="7" rx="3.5"></rect>
            </g>
            <g id="Rectangle-11">
                <use fill="url(#linearGradient-4)" fill-rule="evenodd" xlink:href="#path-5"></use>
                <rect stroke="#979797" stroke-width="1" x="18.5" y="82.5" width="52" height="13" rx="2"></rect>
            </g>
            <polygon id="Combined-Shape" fill="#979797" transform="translate(21.949747, 41.949747) rotate(-315.000000) translate(-21.949747, -41.949747) " points="22.4497475 41.4497475 25.4497475 41.4497475 25.4497475 42.4497475 22.4497475 42.4497475 22.4497475 45.4497475 21.4497475 45.4497475 21.4497475 42.4497475 18.4497475 42.4497475 18.4497475 41.4497475 21.4497475 41.4497475 21.4497475 38.4497475 22.4497475 38.4497475"></polygon>
            <polygon id="Combined-Shape-Copy-3" fill="#979797" transform="translate(21.949747, 57.949747) rotate(-315.000000) translate(-21.949747, -57.949747) " points="22.4497475 57.4497475 25.4497475 57.4497475 25.4497475 58.4497475 22.4497475 58.4497475 22.4497475 61.4497475 21.4497475 61.4497475 21.4497475 58.4497475 18.4497475 58.4497475 18.4497475 57.4497475 21.4497475 57.4497475 21.4497475 54.4497475 22.4497475 54.4497475"></polygon>
            <polygon id="Combined-Shape-Copy" fill="#979797" transform="translate(31.949747, 41.949747) rotate(-315.000000) translate(-31.949747, -41.949747) " points="32.4497475 41.4497475 35.4497475 41.4497475 35.4497475 42.4497475 32.4497475 42.4497475 32.4497475 45.4497475 31.4497475 45.4497475 31.4497475 42.4497475 28.4497475 42.4497475 28.4497475 41.4497475 31.4497475 41.4497475 31.4497475 38.4497475 32.4497475 38.4497475"></polygon>
            <polygon id="Combined-Shape-Copy-4" fill="#979797" transform="translate(31.949747, 57.949747) rotate(-315.000000) translate(-31.949747, -57.949747) " points="32.4497475 57.4497475 35.4497475 57.4497475 35.4497475 58.4497475 32.4497475 58.4497475 32.4497475 61.4497475 31.4497475 61.4497475 31.4497475 58.4497475 28.4497475 58.4497475 28.4497475 57.4497475 31.4497475 57.4497475 31.4497475 54.4497475 32.4497475 54.4497475"></polygon>
            <polygon id="Combined-Shape-Copy-2" fill="#979797" transform="translate(41.949747, 41.949747) rotate(-315.000000) translate(-41.949747, -41.949747) " points="42.4497475 41.4497475 45.4497475 41.4497475 45.4497475 42.4497475 42.4497475 42.4497475 42.4497475 45.4497475 41.4497475 45.4497475 41.4497475 42.4497475 38.4497475 42.4497475 38.4497475 41.4497475 41.4497475 41.4497475 41.4497475 38.4497475 42.4497475 38.4497475"></polygon>
            <polygon id="Combined-Shape-Copy-5" fill="#979797" transform="translate(41.949747, 57.949747) rotate(-315.000000) translate(-41.949747, -57.949747) " points="42.4497475 57.4497475 45.4497475 57.4497475 45.4497475 58.4497475 42.4497475 58.4497475 42.4497475 61.4497475 41.4497475 61.4497475 41.4497475 58.4497475 38.4497475 58.4497475 38.4497475 57.4497475 41.4497475 57.4497475 41.4497475 54.4497475 42.4497475 54.4497475"></polygon>
            <path d="M19.5,63.5 L69.509999,63.5" id="Line" stroke="#979797" stroke-linecap="square"></path>
            <path d="M19.5,47.5 L69.509999,47.5" id="Line-Copy" stroke="#979797" stroke-linecap="square"></path>
            <g id="Rectangle-Copy-2" transform="translate(144.000000, 34.000000)">
                <mask id="mask-7" fill="white">
                    <use xlink:href="#path-6"></use>
                </mask>
                <g id="Mask">
                    <use fill="#FFFFFF" fill-rule="evenodd" xlink:href="#path-6"></use>
                    <rect stroke="#979797" stroke-width="1" x="-0.5" y="-0.5" width="46" height="27" rx="2"></rect>
                </g>
                <g mask="url(#mask-7)">
                    <use fill="url(#linearGradient-8)" fill-rule="evenodd" xlink:href="#path-9"></use>
                    <rect stroke="#979797" stroke-width="1" x="-4.5" y="4.5" width="53" height="6" rx="3"></rect>
                </g>
            </g>
            <g id="Rectangle-13">
                <use fill="#FFFFFF" fill-rule="evenodd" xlink:href="#path-10"></use>
                <rect stroke="#979797" stroke-width="1" x="152.5" y="50.5" width="29" height="45" rx="2"></rect>
            </g>
            <g id="Rectangle-13">
                <use fill="url(#linearGradient-11)" fill-rule="evenodd" xlink:href="#path-12"></use>
                <rect stroke="#979797" stroke-width="1" x="154.5" y="53.5" width="25" height="34" rx="1"></rect>
            </g>
            <g id="Rectangle-12">
                <use fill="#D8D8D8" fill-rule="evenodd" xlink:href="#path-13"></use>
                <rect stroke="#979797" stroke-width="1" x="163.5" y="90.5" width="7" height="2" rx="1"></rect>
            </g>
        </g>
    </g>
</svg>