<?xml version="1.0" encoding="UTF-8"?>
<svg width="128px" height="191px" viewBox="0 0 128 191" version="1.1" xmlns="http://www.w3.org/2000/svg" xmlns:xlink="http://www.w3.org/1999/xlink">
    <!-- Generator: Sketch 48.2 (47327) - http://www.bohemiancoding.com/sketch -->
    <title>Group 2</title>
    <desc>Created with Sketch.</desc>
    <defs>
        <rect id="path-1" x="0" y="0" width="126" height="74" rx="7"></rect>
        <linearGradient x1="50%" y1="-110.495985%" x2="50%" y2="131.62126%" id="linearGradient-3">
            <stop stop-color="#FFFFFF" offset="0%"></stop>
            <stop stop-color="#10C786" offset="100%"></stop>
        </linearGradient>
        <rect id="path-4" x="-13" y="10" width="151" height="19" rx="9.5"></rect>
        <path d="M108,19.7189189 L108,132.281081 C108,143.171539 98.8623785,152 87.5905512,152 L20.4094488,152 C9.13762148,152 0,143.171539 0,132.281081 L2.41696427e-14,19.7189189 C2.41696427e-14,8.82846072 9.13762148,-2.91898637e-15 20.4094488,0 L87.5905512,1.16759455e-14 C98.8623785,1.16759455e-14 108,8.82846072 108,19.7189189 Z" id="path-5"></path>
        <path d="M104,24.2918919 L104,128.708108 C104,138.810441 95.5392394,147 85.1023622,147 L22.8976378,147 C12.4607606,147 4,138.810441 4,128.708108 L4,24.2918919 C4,14.189559 12.4607606,6 22.8976378,6 L85.1023622,6 C95.5392394,6 104,14.189559 104,24.2918919 Z" id="path-6"></path>
        <linearGradient x1="50%" y1="-60.5770739%" x2="50%" y2="125.961342%" id="linearGradient-7">
            <stop stop-color="#FFFFFF" offset="0%"></stop>
            <stop stop-color="#10C786" offset="100%"></stop>
        </linearGradient>
        <rect id="path-8" x="16" y="24" width="76" height="22" rx="6"></rect>
        <linearGradient x1="206.001959%" y1="0%" x2="206.001949%" y2="320.738199%" id="linearGradient-9">
            <stop stop-color="#FFFFFF" offset="0%"></stop>
            <stop stop-color="#10C786" offset="100%"></stop>
        </linearGradient>
        <rect id="path-10" x="18" y="76" width="18" height="8" rx="4"></rect>
        <rect id="path-11" x="18" y="90" width="18" height="8" rx="4"></rect>
        <rect id="path-12" x="18" y="104" width="18" height="8" rx="4"></rect>
        <rect id="path-13" x="18" y="118" width="18" height="8" rx="4"></rect>
        <rect id="path-14" x="46" y="76" width="18" height="8" rx="4"></rect>
        <rect id="path-15" x="46" y="90" width="18" height="8" rx="4"></rect>
        <rect id="path-16" x="46" y="104" width="18" height="8" rx="4"></rect>
        <rect id="path-17" x="46" y="118" width="18" height="8" rx="4"></rect>
        <rect id="path-18" x="74" y="76" width="18" height="8" rx="4"></rect>
        <rect id="path-19" x="74" y="90" width="18" height="8" rx="4"></rect>
        <rect id="path-20" x="74" y="104" width="18" height="8" rx="4"></rect>
        <rect id="path-21" x="74" y="118" width="18" height="8" rx="4"></rect>
        <path d="M21.9889752,60.0002043 C29.3296605,59.9799719 33.0000032,61.4628063 33.0000032,64.4487075 C33.0000032,67.4346101 29.3296573,68.9174445 21.9889654,68.8972107 L21.9889654,68.8972016 C19.7841443,68.8911243 18,67.1020554 18,64.8972259 L17.9999949,64.0001942 C17.9999949,61.7953566 19.784146,60.0062812 21.9889752,60.0002043 Z" id="path-22"></path>
        <path d="M62.9889752,60.0002043 C70.3296605,59.9799719 74.0000032,61.4628063 74.0000032,64.4487075 C74.0000032,67.4346101 70.3296573,68.9174445 62.9889654,68.8972107 L62.9889654,68.8972016 C60.7841443,68.8911243 59,67.1020554 59,64.8972259 L58.9999949,64.0001942 C58.9999949,61.7953566 60.784146,60.0062812 62.9889752,60.0002043 Z" id="path-23"></path>
        <path d="M47.0134716,68.897204 C39.6711572,68.9177725 36,67.4349404 36,64.4487075 C36,61.4624752 39.6711557,59.9796431 47.0134672,60.000211 C49.2173369,60.0063814 51,61.4941656 51,63.327309 L51.0000032,65.5701033 C51.0000032,67.4032462 49.2173407,68.8910301 47.0134716,68.897204 Z" id="path-24"></path>
        <path d="M88.0134716,68.897204 C80.6711572,68.9177725 77,67.4349404 77,64.4487075 C77,61.4624752 80.6711557,59.9796431 88.0134672,60.000211 C90.2173369,60.0063814 92,61.4941656 92,63.327309 L92.0000032,65.5701033 C92.0000032,67.4032462 90.2173407,68.8910301 88.0134716,68.897204 Z" id="path-25"></path>
    </defs>
    <g id="eid认证-鼠标悬停2" stroke="none" stroke-width="1" fill="none" fill-rule="evenodd" transform="translate(-930.000000, -387.000000)">
        <g id="Group-2" transform="translate(931.000000, 388.000000)">
            <g id="Rectangle-Copy-2">
                <mask id="mask-2" fill="white">
                    <use xlink:href="#path-1"></use>
                </mask>
                <g id="Mask">
                    <use fill="#FFFFFF" fill-rule="evenodd" xlink:href="#path-1"></use>
                    <rect stroke="#10C786" stroke-width="1" x="-0.5" y="-0.5" width="127" height="75" rx="7"></rect>
                </g>
                <g mask="url(#mask-2)">
                    <use fill="url(#linearGradient-3)" fill-rule="evenodd" xlink:href="#path-4"></use>
                    <rect stroke="#10C786" stroke-width="1" x="-12.5" y="10.5" width="150" height="18" rx="9"></rect>
                </g>
            </g>
            <g id="Group" transform="translate(10.000000, 38.000000)">
                <g id="Rectangle-14">
                    <use fill="#FFFFFF" fill-rule="evenodd" xlink:href="#path-5"></use>
                    <path stroke="#10C786" stroke-width="2" d="M107,19.7189189 C107,9.38859387 98.3176489,1 87.5905512,1 L20.4094488,1 C9.68235109,1 1,9.38859387 1,19.7189189 L1,132.281081 C1,142.611406 9.68235109,151 20.4094488,151 L87.5905512,151 C98.3176489,151 107,142.611406 107,132.281081 L107,19.7189189 Z"></path>
                </g>
                <g id="Rectangle-14">
                    <use fill="#FFFFFF" fill-rule="evenodd" xlink:href="#path-6"></use>
                    <path stroke="#10C786" stroke-width="1" d="M103.5,24.2918919 C103.5,14.4694122 95.2666764,6.5 85.1023622,6.5 L22.8976378,6.5 C12.7333236,6.5 4.5,14.4694122 4.5,24.2918919 L4.5,128.708108 C4.5,138.530588 12.7333236,146.5 22.8976378,146.5 L85.1023622,146.5 C95.2666764,146.5 103.5,138.530588 103.5,128.708108 L103.5,24.2918919 Z"></path>
                </g>
                <g id="Rectangle-2">
                    <use fill="url(#linearGradient-7)" fill-rule="evenodd" xlink:href="#path-8"></use>
                    <rect stroke="#10C786" stroke-width="1" x="16.5" y="24.5" width="75" height="21" rx="6"></rect>
                </g>
                <g id="Rectangle-3">
                    <use fill="url(#linearGradient-9)" fill-rule="evenodd" xlink:href="#path-10"></use>
                    <rect stroke="#10C786" stroke-width="1" x="18.5" y="76.5" width="17" height="7" rx="3.5"></rect>
                </g>
                <g id="Rectangle-3-Copy-3">
                    <use fill="url(#linearGradient-9)" fill-rule="evenodd" xlink:href="#path-11"></use>
                    <rect stroke="#10C786" stroke-width="1" x="18.5" y="90.5" width="17" height="7" rx="3.5"></rect>
                </g>
                <g id="Rectangle-3-Copy-6">
                    <use fill="url(#linearGradient-9)" fill-rule="evenodd" xlink:href="#path-12"></use>
                    <rect stroke="#10C786" stroke-width="1" x="18.5" y="104.5" width="17" height="7" rx="3.5"></rect>
                </g>
                <g id="Rectangle-3-Copy-9">
                    <use fill="url(#linearGradient-9)" fill-rule="evenodd" xlink:href="#path-13"></use>
                    <rect stroke="#10C786" stroke-width="1" x="18.5" y="118.5" width="17" height="7" rx="3.5"></rect>
                </g>
                <g id="Rectangle-3-Copy">
                    <use fill="url(#linearGradient-9)" fill-rule="evenodd" xlink:href="#path-14"></use>
                    <rect stroke="#10C786" stroke-width="1" x="46.5" y="76.5" width="17" height="7" rx="3.5"></rect>
                </g>
                <g id="Rectangle-3-Copy-4">
                    <use fill="url(#linearGradient-9)" fill-rule="evenodd" xlink:href="#path-15"></use>
                    <rect stroke="#10C786" stroke-width="1" x="46.5" y="90.5" width="17" height="7" rx="3.5"></rect>
                </g>
                <g id="Rectangle-3-Copy-7">
                    <use fill="url(#linearGradient-9)" fill-rule="evenodd" xlink:href="#path-16"></use>
                    <rect stroke="#10C786" stroke-width="1" x="46.5" y="104.5" width="17" height="7" rx="3.5"></rect>
                </g>
                <g id="Rectangle-3-Copy-10">
                    <use fill="url(#linearGradient-9)" fill-rule="evenodd" xlink:href="#path-17"></use>
                    <rect stroke="#10C786" stroke-width="1" x="46.5" y="118.5" width="17" height="7" rx="3.5"></rect>
                </g>
                <g id="Rectangle-3-Copy-2">
                    <use fill="url(#linearGradient-9)" fill-rule="evenodd" xlink:href="#path-18"></use>
                    <rect stroke="#10C786" stroke-width="1" x="74.5" y="76.5" width="17" height="7" rx="3.5"></rect>
                </g>
                <g id="Rectangle-3-Copy-5">
                    <use fill="url(#linearGradient-9)" fill-rule="evenodd" xlink:href="#path-19"></use>
                    <rect stroke="#10C786" stroke-width="1" x="74.5" y="90.5" width="17" height="7" rx="3.5"></rect>
                </g>
                <g id="Rectangle-3-Copy-8">
                    <use fill="url(#linearGradient-9)" fill-rule="evenodd" xlink:href="#path-20"></use>
                    <rect stroke="#10C786" stroke-width="1" x="74.5" y="104.5" width="17" height="7" rx="3.5"></rect>
                </g>
                <g id="Rectangle-3-Copy-11">
                    <use fill="url(#linearGradient-9)" fill-rule="evenodd" xlink:href="#path-21"></use>
                    <rect stroke="#10C786" stroke-width="1" x="74.5" y="118.5" width="17" height="7" rx="3.5"></rect>
                </g>
                <g id="Rectangle-15">
                    <use fill="url(#linearGradient-9)" fill-rule="evenodd" xlink:href="#path-22"></use>
                    <path stroke="#10C786" stroke-width="1" d="M21.9903533,60.5002024 C20.0611274,60.5055197 18.4999949,62.0709609 18.4999949,64.0001913 L18.5,64.8972259 C18.5,66.8264502 20.0611253,68.391887 21.9903436,68.3972126 C29.0786286,68.4167506 32.5000032,67.0345017 32.5000032,64.4487075 C32.5000032,61.8629146 29.0786319,60.4806657 21.9903533,60.5002024 Z"></path>
                </g>
                <g id="Rectangle-15-Copy-2">
                    <use fill="url(#linearGradient-9)" fill-rule="evenodd" xlink:href="#path-23"></use>
                    <path stroke="#10C786" stroke-width="1" d="M62.9903533,60.5002024 C61.0611274,60.5055197 59.4999949,62.0709609 59.4999949,64.0001913 L59.5,64.8972259 C59.5,66.8264502 61.0611253,68.391887 62.9903436,68.3972126 C70.0786286,68.4167506 73.5000032,67.0345017 73.5000032,64.4487075 C73.5000032,61.8629146 70.0786319,60.4806657 62.9903533,60.5002024 Z"></path>
                </g>
                <g id="Rectangle-15-Copy">
                    <use fill="url(#linearGradient-9)" fill-rule="evenodd" xlink:href="#path-24"></use>
                    <path stroke="#10C786" stroke-width="1" d="M47.012071,68.3972059 C48.9585457,68.3917531 50.5000032,67.1052754 50.5000032,65.570104 L50.5,63.327309 C50.5,61.7921362 48.9585418,60.5056588 47.0120666,60.5002091 C39.9221789,60.4803482 36.5,61.8626151 36.5,64.4487075 C36.5,67.0348005 39.9221803,68.4170673 47.012071,68.3972059 Z"></path>
                </g>
                <g id="Rectangle-15-Copy-3">
                    <use fill="url(#linearGradient-9)" fill-rule="evenodd" xlink:href="#path-25"></use>
                    <path stroke="#10C786" stroke-width="1" d="M88.012071,68.3972059 C89.9585457,68.3917531 91.5000032,67.1052754 91.5000032,65.570104 L91.5,63.327309 C91.5,61.7921362 89.9585418,60.5056588 88.0120666,60.5002091 C80.9221789,60.4803482 77.5,61.8626151 77.5,64.4487075 C77.5,67.0348005 80.9221803,68.4170673 88.012071,68.3972059 Z"></path>
                </g>
            </g>
        </g>
    </g>
</svg>