<svg xmlns="http://www.w3.org/2000/svg" xmlns:xlink="http://www.w3.org/1999/xlink" viewBox="0 0 56.09 65.39"><defs><style>.cls-1,.cls-2,.cls-28,.cls-3,.cls-6{fill:none;}.cls-1{clip-rule:evenodd;}.cls-3{fill-rule:evenodd;}.cls-4{clip-path:url(#clip-path);}.cls-5{clip-path:url(#clip-path-2);}.cls-28,.cls-6{stroke:#344b63;stroke-miterlimit:10;}.cls-6{stroke-width:4px;}.cls-7{clip-path:url(#clip-path-3);}.cls-8{isolation:isolate;}.cls-9{clip-path:url(#clip-path-5);}.cls-10{clip-path:url(#clip-path-6);}.cls-11{fill:#fff;}.cls-12{clip-path:url(#clip-path-9);}.cls-13{fill:#10c786;}.cls-14{clip-path:url(#clip-path-11);}.cls-15{clip-path:url(#clip-path-13);}.cls-16{clip-path:url(#clip-path-15);}.cls-17{clip-path:url(#clip-path-17);}.cls-18{clip-path:url(#clip-path-19);}.cls-19{clip-path:url(#clip-path-21);}.cls-20{clip-path:url(#clip-path-23);}.cls-21{clip-path:url(#clip-path-25);}.cls-22{fill:#c2c5c4;}.cls-23{clip-path:url(#clip-path-27);}.cls-24{clip-path:url(#clip-path-29);}.cls-25{clip-path:url(#clip-path-31);}.cls-26{clip-path:url(#clip-path-33);}.cls-27{clip-path:url(#clip-path-35);}.cls-28{stroke-width:2px;}</style><clipPath id="clip-path" transform="translate(-556.91 -229.69)"><path class="cls-1" d="M596,255.48v33.81c0,.94.14.79-.83.79H562.75c-1,0-.83.15-.83-.79V244.71c0-.94-.14-.79.83-.79H583a2,2,0,0,1,1.34.52l11.34,10.3A1,1,0,0,1,596,255.48Zm-46.11-23.57H608v70.18H549.91Z"/></clipPath><clipPath id="clip-path-2" transform="translate(-556.91 -229.69)"><rect class="cls-2" width="1440" height="900"/></clipPath><clipPath id="clip-path-3" transform="translate(-556.91 -229.69)"><path class="cls-1" d="M596,255.48v33.81c0,.94.14.79-.83.79H562.75c-1,0-.83.15-.83-.79V244.71c0-.94-.14-.79.83-.79H583a2,2,0,0,1,1.34.52l11.34,10.3A1,1,0,0,1,596,255.48Z"/></clipPath><clipPath id="clip-path-5" transform="translate(-556.91 -229.69)"><rect class="cls-2" x="549" y="222" width="71" height="81"/></clipPath><clipPath id="clip-path-6" transform="translate(-556.91 -229.69)"><rect class="cls-2" x="561" y="243" width="36" height="48"/></clipPath><clipPath id="clip-path-9" transform="translate(-556.91 -229.69)"><path class="cls-1" d="M584,234.69v-2.2l1.66,1.45,22.23,19.48,2,1.75H587a3,3,0,0,1-3-3Zm1,1.33v-.87l-.66.29Zm21.86,18.15h-1.14l.86.75Zm-.77-1,.86.75.29-.75ZM585.3,235l.66.58v-.88Z"/></clipPath><clipPath id="clip-path-11" transform="translate(-556.91 -229.69)"><path class="cls-1" d="M585,234.69v17.48a2,2,0,0,0,2,2H607.2Zm-12-12H619.2v43.48H573Z"/></clipPath><clipPath id="clip-path-13" transform="translate(-556.91 -229.69)"><rect class="cls-2" x="565.61" y="253.15" width="3.69" height="1.85"/></clipPath><clipPath id="clip-path-15" transform="translate(-556.91 -229.69)"><rect class="cls-2" x="565.61" y="270.69" width="3.69" height="1.85"/></clipPath><clipPath id="clip-path-17" transform="translate(-556.91 -229.69)"><rect class="cls-2" x="571.14" y="253.15" width="3.69" height="1.85"/></clipPath><clipPath id="clip-path-19" transform="translate(-556.91 -229.69)"><rect class="cls-2" x="571.14" y="270.69" width="3.69" height="1.85"/></clipPath><clipPath id="clip-path-21" transform="translate(-556.91 -229.69)"><rect class="cls-2" x="576.67" y="253.15" width="3.69" height="1.85"/></clipPath><clipPath id="clip-path-23" transform="translate(-556.91 -229.69)"><rect class="cls-2" x="576.67" y="270.69" width="3.69" height="1.85"/></clipPath><clipPath id="clip-path-25" transform="translate(-556.91 -229.69)"><rect class="cls-2" x="565.61" y="257.77" width="14.75" height="1.85"/></clipPath><clipPath id="clip-path-27" transform="translate(-556.91 -229.69)"><rect class="cls-2" x="565.61" y="275.31" width="14.75" height="1.85"/></clipPath><clipPath id="clip-path-29" transform="translate(-556.91 -229.69)"><rect class="cls-2" x="565.61" y="262.38" width="26.73" height="1.85"/></clipPath><clipPath id="clip-path-31" transform="translate(-556.91 -229.69)"><rect class="cls-2" x="565.61" y="279.92" width="21.2" height="1.85"/></clipPath><clipPath id="clip-path-33" transform="translate(-556.91 -229.69)"><ellipse class="cls-2" cx="598.78" cy="273.46" rx="9.22" ry="9.23"/></clipPath><clipPath id="clip-path-35" transform="translate(-556.91 -229.69)"><polygon class="cls-1" points="598.09 274.18 601.73 270.54 603.03 271.84 599.39 275.48 599.39 275.48 598.09 276.79 598.09 276.79 598.08 276.79 596.78 275.49 596.78 275.48 595.1 273.79 596.4 272.49 598.09 274.18"/></clipPath></defs><title>资源 8</title><g id="图层_2" data-name="图层 2"><g id="图层_1-2" data-name="图层 1"><g class="cls-4"><g class="cls-5"><path class="cls-6" d="M596,255.48v33.81c0,.94.14.79-.83.79H562.75c-1,0-.83.15-.83-.79V244.71c0-.94-.14-.79.83-.79H583a2,2,0,0,1,1.34.52l11.34,10.3A1,1,0,0,1,596,255.48Z" transform="translate(-556.91 -229.69)"/></g></g><g class="cls-7"><g class="cls-5"><g class="cls-8"><g class="cls-9"><g class="cls-10"><rect class="cls-11" y="9.22" width="44.11" height="56.17"/></g><g class="cls-4"><g class="cls-10"><path class="cls-6" d="M596,255.48v33.81c0,.94.14.79-.83.79H562.75c-1,0-.83.15-.83-.79V244.71c0-.94-.14-.79.83-.79H583a2,2,0,0,1,1.34.52l11.34,10.3A1,1,0,0,1,596,255.48Z" transform="translate(-556.91 -229.69)"/></g></g><g class="cls-12"><g class="cls-10"><rect class="cls-13" x="23.05" width="32.23" height="29.48"/></g></g><g class="cls-14"><g class="cls-10"><path class="cls-6" d="M585,234.69v17.48a2,2,0,0,0,2,2H607.2Z" transform="translate(-556.91 -229.69)"/></g></g></g></g></g></g><g class="cls-15"><g class="cls-5"><rect class="cls-13" x="3.69" y="18.46" width="13.69" height="11.85"/></g></g><g class="cls-16"><g class="cls-5"><rect class="cls-13" x="3.69" y="36" width="13.69" height="11.85"/></g></g><g class="cls-17"><g class="cls-5"><rect class="cls-13" x="9.22" y="18.46" width="13.69" height="11.85"/></g></g><g class="cls-18"><g class="cls-5"><rect class="cls-13" x="9.22" y="36" width="13.69" height="11.85"/></g></g><g class="cls-19"><g class="cls-5"><rect class="cls-13" x="14.75" y="18.46" width="13.69" height="11.85"/></g></g><g class="cls-20"><g class="cls-5"><rect class="cls-13" x="14.75" y="36" width="13.69" height="11.85"/></g></g><g class="cls-21"><g class="cls-5"><rect class="cls-22" x="3.69" y="23.08" width="24.75" height="11.85"/></g></g><g class="cls-23"><g class="cls-5"><rect class="cls-22" x="3.69" y="40.62" width="24.75" height="11.85"/></g></g><g class="cls-24"><g class="cls-5"><rect class="cls-22" x="3.69" y="27.69" width="36.73" height="11.85"/></g></g><g class="cls-25"><g class="cls-5"><rect class="cls-22" x="3.69" y="45.23" width="31.2" height="11.85"/></g></g><g class="cls-26"><g class="cls-5"><rect class="cls-13" x="27.65" y="29.54" width="28.43" height="28.46"/></g></g><g class="cls-27"><g class="cls-5"><rect class="cls-11" x="590.56" y="265.7" width="17" height="14.23" transform="translate(-574.36 273.82) rotate(-45)"/></g></g><ellipse class="cls-28" cx="41.87" cy="43.77" rx="9.22" ry="9.23"/></g></g></svg>