<svg xmlns="http://www.w3.org/2000/svg" xmlns:xlink="http://www.w3.org/1999/xlink" viewBox="0 0 112.58 104"><defs><style>.cls-1,.cls-2,.cls-3,.cls-8,.cls-9{fill:none;}.cls-1{clip-rule:evenodd;}.cls-3{fill-rule:evenodd;}.cls-4{clip-path:url(#clip-path);}.cls-5{clip-path:url(#clip-path-2);}.cls-6{clip-path:url(#clip-path-3);}.cls-7{fill:#c2c5c4;}.cls-8{stroke:#c2c5c4;stroke-width:2px;stroke-dasharray:4 2;}.cls-8,.cls-9{stroke-miterlimit:10;}.cls-9{stroke:#344b63;stroke-width:4px;}.cls-10{clip-path:url(#clip-path-6);}.cls-11{fill:#f2f2f2;}.cls-12{clip-path:url(#clip-path-8);}.cls-13{clip-path:url(#clip-path-9);}.cls-14{fill:#d8d8d8;}.cls-15{clip-path:url(#clip-path-13);}.cls-16{clip-path:url(#clip-path-15);}.cls-17{isolation:isolate;}.cls-18{clip-path:url(#clip-path-17);}.cls-19{clip-path:url(#clip-path-18);}.cls-20{fill:#fff;}.cls-21{clip-path:url(#clip-path-21);}.cls-22{fill:#10c786;}.cls-23{clip-path:url(#clip-path-23);}.cls-24{clip-path:url(#clip-path-25);}.cls-25{clip-path:url(#clip-path-27);}.cls-26{clip-path:url(#clip-path-29);}.cls-27{clip-path:url(#clip-path-31);}.cls-28{clip-path:url(#clip-path-33);}.cls-29{clip-path:url(#clip-path-35);}.cls-30{clip-path:url(#clip-path-37);}.cls-31{clip-path:url(#clip-path-39);}.cls-32{clip-path:url(#clip-path-41);}.cls-33{clip-path:url(#clip-path-43);}.cls-34{clip-path:url(#clip-path-45);}.cls-35{clip-path:url(#clip-path-47);}.cls-36{fill:#344b63;}.cls-37{clip-path:url(#clip-path-49);}.cls-38{clip-path:url(#clip-path-51);}</style><clipPath id="clip-path" transform="translate(-1074.42 -138)"><path class="cls-1" d="M1103,139a4,4,0,0,0-4,4v46a4,4,0,0,0,4,4h64a4,4,0,0,0,4-4V143a4,4,0,0,0-4-4Zm0,2h64a2,2,0,0,1,2,2v46a2,2,0,0,1-2,2h-64a2,2,0,0,1-2-2V143A2,2,0,0,1,1103,141Zm-24-22h112v94H1079Z"/></clipPath><clipPath id="clip-path-2" transform="translate(-1074.42 -138)"><rect class="cls-2" x="1100" y="140" width="70" height="52" rx="3" ry="3"/></clipPath><clipPath id="clip-path-3" transform="translate(-1074.42 -138)"><rect class="cls-2" width="1440" height="900"/></clipPath><clipPath id="clip-path-6" transform="translate(-1074.42 -138)"><rect class="cls-2" x="1105" y="145" width="60" height="42"/></clipPath><clipPath id="clip-path-8" transform="translate(-1074.42 -138)"><path class="cls-1" d="M1093,186a2,2,0,0,0-2,2v1.45a4.92,4.92,0,0,0,2.77,4.43l5.19,2.52a6.09,6.09,0,0,0,2.62.6h66.84a6.09,6.09,0,0,0,2.62-.6l5.19-2.52a4.92,4.92,0,0,0,2.77-4.43V188a2,2,0,0,0-2-2Zm0,2h84v1.45a2.93,2.93,0,0,1-1.64,2.63l-5.19,2.52a4.11,4.11,0,0,1-1.75.4h-66.84a4.11,4.11,0,0,1-1.75-.4l-5.19-2.52a2.93,2.93,0,0,1-1.64-2.63Zm-22-22h128v51H1071Z"/></clipPath><clipPath id="clip-path-9" transform="translate(-1074.42 -138)"><path class="cls-1" d="M1093,187h84a1,1,0,0,1,1,1v1.45a3.91,3.91,0,0,1-2.21,3.53l-5.19,2.52a5,5,0,0,1-2.18.5h-66.84a5,5,0,0,1-2.18-.5l-5.19-2.52a3.91,3.91,0,0,1-2.21-3.53V188A1,1,0,0,1,1093,187Z"/></clipPath><clipPath id="clip-path-13" transform="translate(-1074.42 -138)"><path class="cls-1" d="M1123.5,178.11v43.46c0,1.21.17,1-1.07,1H1080.5c-1.25,0-1.07.2-1.07-1V164.43c0-1.21-.18-1,1.07-1h26.41a2,2,0,0,1,1.34.52l14.91,13.43A1,1,0,0,1,1123.5,178.11Zm-56.08-26.7h68.08v83.18h-68.08Z"/></clipPath><clipPath id="clip-path-15" transform="translate(-1074.42 -138)"><path class="cls-1" d="M1123.5,178.11v43.46c0,1.21.17,1-1.07,1H1080.5c-1.25,0-1.07.2-1.07-1V164.43c0-1.21-.18-1,1.07-1h26.41a2,2,0,0,1,1.34.52l14.91,13.43A1,1,0,0,1,1123.5,178.11Z"/></clipPath><clipPath id="clip-path-17" transform="translate(-1074.42 -138)"><rect class="cls-2" x="1067" y="139" width="83" height="96"/></clipPath><clipPath id="clip-path-18" transform="translate(-1074.42 -138)"><rect class="cls-2" x="1079" y="163" width="45" height="60"/></clipPath><clipPath id="clip-path-21" transform="translate(-1074.42 -138)"><path class="cls-1" d="M1108.2,151.59V149.4l1.66,1.44,28.73,25,2,1.76H1111.2a3,3,0,0,1-3-3Zm1,1.33v-.87l-.65.3Zm28.36,23.64h-1.15l.87.75Zm-.77-1,.87.75.28-.75Zm-27.24-23.67.65.57v-.87Z"/></clipPath><clipPath id="clip-path-23" transform="translate(-1074.42 -138)"><path class="cls-1" d="M1109.2,151.59v23a2,2,0,0,0,2,2h26.74Zm-12-12h52.74v49H1097.2Z"/></clipPath><clipPath id="clip-path-25" transform="translate(-1074.42 -138)"><rect class="cls-2" x="1084" y="178" width="12" height="2"/></clipPath><clipPath id="clip-path-27" transform="translate(-1074.42 -138)"><rect class="cls-2" x="1084" y="182" width="34" height="2"/></clipPath><clipPath id="clip-path-29" transform="translate(-1074.42 -138)"><rect class="cls-2" x="1084" y="202" width="26" height="2"/></clipPath><clipPath id="clip-path-31" transform="translate(-1074.42 -138)"><rect class="cls-2" x="1084" y="210" width="32" height="2"/></clipPath><clipPath id="clip-path-33" transform="translate(-1074.42 -138)"><rect class="cls-2" x="1084" y="194" width="34" height="2"/></clipPath><clipPath id="clip-path-35" transform="translate(-1074.42 -138)"><rect class="cls-2" x="1084" y="206" width="34" height="2"/></clipPath><clipPath id="clip-path-37" transform="translate(-1074.42 -138)"><rect class="cls-2" x="1084" y="186" width="8" height="2"/></clipPath><clipPath id="clip-path-39" transform="translate(-1074.42 -138)"><rect class="cls-2" x="1110" y="198" width="8" height="2"/></clipPath><clipPath id="clip-path-41" transform="translate(-1074.42 -138)"><rect class="cls-2" x="1095" y="186" width="22" height="2"/></clipPath><clipPath id="clip-path-43" transform="translate(-1074.42 -138)"><rect class="cls-2" x="1084" y="198" width="22" height="2"/></clipPath><clipPath id="clip-path-45" transform="translate(-1074.42 -138)"><rect class="cls-2" x="1084" y="174" width="16" height="2"/></clipPath><clipPath id="clip-path-47" transform="translate(-1074.42 -138)"><circle class="cls-2" cx="1125" cy="222" r="15"/></clipPath><clipPath id="clip-path-49" transform="translate(-1074.42 -138)"><rect class="cls-2" x="1120" y="221" width="10" height="2"/></clipPath><clipPath id="clip-path-51" transform="translate(-1074.42 -138)"><rect class="cls-2" x="1124" y="217" width="2" height="10"/></clipPath></defs><title>资源 1</title><g id="图层_2" data-name="图层 2"><g id="图层_1-2" data-name="图层 1"><g class="cls-4"><g class="cls-5"><g class="cls-6"><rect class="cls-7" x="25.58" y="2" width="70" height="52" rx="3" ry="3"/></g></g></g><polyline class="cls-8" points="104.04 52 111.58 52 111.58 74 49.58 74"/><g class="cls-5"><g class="cls-6"><rect class="cls-9" x="25.58" y="2" width="70" height="52" rx="3" ry="3"/></g></g><g class="cls-10"><g class="cls-6"><rect class="cls-11" x="25.58" y="2" width="70" height="52"/></g></g><g class="cls-12"><g class="cls-13"><g class="cls-6"><path class="cls-14" d="M1093,187h84a1,1,0,0,1,1,1v1.45a3.91,3.91,0,0,1-2.21,3.53l-5.19,2.52a5,5,0,0,1-2.18.5h-66.84a5,5,0,0,1-2.18-.5l-5.19-2.52a3.91,3.91,0,0,1-2.21-3.53V188A1,1,0,0,1,1093,187Z" transform="translate(-1074.42 -138)"/></g></g></g><g class="cls-13"><g class="cls-6"><path class="cls-9" d="M1093,187h84a1,1,0,0,1,1,1v1.45a3.91,3.91,0,0,1-2.21,3.53l-5.19,2.52a5,5,0,0,1-2.18.5h-66.84a5,5,0,0,1-2.18-.5l-5.19-2.52a3.91,3.91,0,0,1-2.21-3.53V188A1,1,0,0,1,1093,187Z" transform="translate(-1074.42 -138)"/></g></g><g class="cls-15"><g class="cls-6"><path class="cls-9" d="M1123.5,178.11v43.46c0,1.21.17,1-1.07,1H1080.5c-1.25,0-1.07.2-1.07-1V164.43c0-1.21-.18-1,1.07-1h26.41a2,2,0,0,1,1.34.52l14.91,13.43A1,1,0,0,1,1123.5,178.11Z" transform="translate(-1074.42 -138)"/></g></g><g class="cls-16"><g class="cls-6"><g class="cls-17"><g class="cls-18"><g class="cls-19"><rect class="cls-20" y="20.41" width="54.09" height="69.18"/></g><g class="cls-15"><g class="cls-19"><path class="cls-9" d="M1123.5,178.11v43.46c0,1.21.17,1-1.07,1H1080.5c-1.25,0-1.07.2-1.07-1V164.43c0-1.21-.18-1,1.07-1h26.41a2,2,0,0,1,1.34.52l14.91,13.43A1,1,0,0,1,1123.5,178.11Z" transform="translate(-1074.42 -138)"/></g></g><g class="cls-21"><g class="cls-19"><rect class="cls-22" x="29.78" y="8.59" width="38.74" height="34.96"/></g></g><g class="cls-23"><g class="cls-19"><path class="cls-9" d="M1109.2,151.59v23a2,2,0,0,0,2,2h26.74Z" transform="translate(-1074.42 -138)"/></g></g></g></g></g></g><g class="cls-24"><g class="cls-6"><rect class="cls-7" x="4.58" y="35" width="22" height="12"/></g></g><g class="cls-25"><g class="cls-6"><rect class="cls-7" x="4.58" y="39" width="44" height="12"/></g></g><g class="cls-26"><g class="cls-6"><rect class="cls-7" x="4.58" y="59" width="36" height="12"/></g></g><g class="cls-27"><g class="cls-6"><rect class="cls-7" x="4.58" y="67" width="42" height="12"/></g></g><g class="cls-28"><g class="cls-6"><rect class="cls-7" x="4.58" y="51" width="44" height="12"/></g></g><g class="cls-29"><g class="cls-6"><rect class="cls-7" x="4.58" y="63" width="44" height="12"/></g></g><g class="cls-30"><g class="cls-6"><rect class="cls-7" x="4.58" y="43" width="18" height="12"/></g></g><g class="cls-31"><g class="cls-6"><rect class="cls-7" x="30.58" y="55" width="18" height="12"/></g></g><g class="cls-32"><g class="cls-6"><rect class="cls-7" x="15.58" y="43" width="32" height="12"/></g></g><g class="cls-33"><g class="cls-6"><rect class="cls-7" x="4.58" y="55" width="32" height="12"/></g></g><g class="cls-34"><g class="cls-6"><rect class="cls-7" x="4.58" y="31" width="26" height="12"/></g></g><g class="cls-35"><g class="cls-6"><rect class="cls-36" x="30.58" y="64" width="40" height="40"/></g></g><g class="cls-37"><g class="cls-6"><rect class="cls-20" x="40.58" y="78" width="20" height="12"/></g></g><g class="cls-38"><g class="cls-6"><rect class="cls-20" x="44.58" y="74" width="12" height="20"/></g></g></g></g></svg>