<svg id="图层_1" data-name="图层 1" xmlns="http://www.w3.org/2000/svg" xmlns:xlink="http://www.w3.org/1999/xlink" viewBox="0 0 55 55"><defs><style>.cls-1,.cls-12,.cls-17,.cls-2,.cls-3,.cls-4,.cls-5{fill:none;}.cls-1,.cls-11,.cls-12,.cls-5,.cls-8{stroke:#334b63;stroke-width:2px;}.cls-1,.cls-11,.cls-12,.cls-17,.cls-5,.cls-8{stroke-miterlimit:10;}.cls-12,.cls-3{fill-rule:evenodd;}.cls-4,.cls-5{clip-rule:evenodd;}.cls-6{clip-path:url(#clip-path);}.cls-7{clip-path:url(#clip-path-2);}.cls-22,.cls-8{fill:#fff;}.cls-9{clip-path:url(#clip-path-3);}.cls-10{clip-path:url(#clip-path-5);}.cls-11,.cls-25{fill:#10c786;}.cls-13{clip-path:url(#clip-path-7);}.cls-14{clip-path:url(#clip-path-8);}.cls-15{clip-path:url(#clip-path-9);}.cls-16{clip-path:url(#clip-path-10);}.cls-17{stroke:#344b63;stroke-width:4px;}.cls-18{clip-path:url(#clip-path-11);}.cls-19{isolation:isolate;}.cls-20{clip-path:url(#clip-path-13);}.cls-21{clip-path:url(#clip-path-14);}.cls-23{clip-path:url(#clip-path-17);}.cls-24{clip-path:url(#clip-path-18);}.cls-26{clip-path:url(#clip-path-22);}.cls-27{clip-path:url(#clip-path-23);}.cls-28{clip-path:url(#clip-path-27);}.cls-29{fill:#c2c5c4;}.cls-30{clip-path:url(#clip-path-29);}</style><clipPath id="clip-path"><rect id="SVGID" class="cls-1" x="12" y="8" width="26" height="24" rx="1" ry="1"/></clipPath><clipPath id="clip-path-2"><rect id="SVGID-2" data-name="SVGID" class="cls-1" x="-757" y="-240" width="1440" height="900"/></clipPath><clipPath id="clip-path-3"><rect id="SVGID-3" data-name="SVGID" class="cls-1" x="20" y="3" width="23" height="24" rx="1" ry="1"/></clipPath><clipPath id="clip-path-5"><path id="SVGID-5" data-name="SVGID" class="cls-5" d="M9.63,17.74,2.42,28.6A1,1,0,0,0,2.7,30a1,1,0,0,0,.55.17h7.21a1,1,0,0,0,1-1V18.29a1,1,0,0,0-1-1A1,1,0,0,0,9.63,17.74Z"/></clipPath><clipPath id="clip-path-7"><path id="SVGID-7" data-name="SVGID" class="cls-5" d="M45.32,17.65l7.21,10.86a1,1,0,0,1-.28,1.38,1,1,0,0,1-.55.17H44.49a1,1,0,0,1-1-1V18.2a1,1,0,0,1,1-1A1,1,0,0,1,45.32,17.65Z"/></clipPath><clipPath id="clip-path-8"><rect id="SVGID-8" data-name="SVGID" class="cls-1" x="-628.04" y="-240.09" width="1440" height="900"/></clipPath><clipPath id="clip-path-9"><path id="SVGID-9" data-name="SVGID" class="cls-4" d="M10.52,18h34a1,1,0,0,1,1,1V51a1,1,0,0,1-1,1h-34a1,1,0,0,1-1-1V19A1,1,0,0,1,10.52,18Zm-13-12h60V64h-60Z"/></clipPath><clipPath id="clip-path-10"><rect id="SVGID-10" data-name="SVGID" class="cls-2" x="-757" y="-240" width="1440" height="900"/></clipPath><clipPath id="clip-path-11"><rect id="SVGID-11" data-name="SVGID" class="cls-2" x="9.52" y="18" width="36" height="34" rx="1" ry="1"/></clipPath><clipPath id="clip-path-13"><rect id="SVGID-13" data-name="SVGID" class="cls-2" x="-3" y="6" width="61" height="58"/></clipPath><clipPath id="clip-path-14"><rect id="SVGID-14" data-name="SVGID" class="cls-2" x="9" y="18" width="37" height="34"/></clipPath><clipPath id="clip-path-17"><path id="SVGID-17" data-name="SVGID" class="cls-4" d="M7.2,13.56H5.47l.86,1.49L15,30.27a3,3,0,0,0,2.61,1.51H37.36A3,3,0,0,0,40,30.27l8.7-15.22.86-1.49H7.2Zm0,2H47.8l-.87-1.5-8.7,15.21a1,1,0,0,1-.87.51H17.64a1,1,0,0,1-.87-.51L8.07,14.06Zm-21.73-22H69.53V51.78H-14.53Z"/></clipPath><clipPath id="clip-path-18"><path id="SVGID-18" data-name="SVGID" class="cls-4" d="M7.2,14.56H47.8L39.1,29.77a2,2,0,0,1-1.74,1H17.64a2,2,0,0,1-1.74-1Z"/></clipPath><clipPath id="clip-path-22"><path id="SVGID-22" data-name="SVGID" class="cls-4" d="M18.64,38.37a2,2,0,0,0-2,2v6a2,2,0,0,0,2,2H36.36a2,2,0,0,0,2-2v-6a2,2,0,0,0-2-2Zm0,2H36.36v6H18.64Zm-22-22H58.36v50H-3.36Z"/></clipPath><clipPath id="clip-path-23"><rect id="SVGID-23" data-name="SVGID" class="cls-2" x="17.64" y="39.37" width="19.72" height="8.04" rx="1" ry="1"/></clipPath><clipPath id="clip-path-27"><rect id="SVGID-27" data-name="SVGID" class="cls-2" x="25" y="8" width="13" height="2"/></clipPath><clipPath id="clip-path-29"><rect id="SVGID-29" data-name="SVGID" class="cls-2" x="25" y="12" width="13" height="2"/></clipPath></defs><title>画板 1</title><g class="cls-6"><g class="cls-7"><rect class="cls-8" x="7" y="3" width="36" height="34"/></g><rect id="SVGID-31" data-name="SVGID" class="cls-1" x="-757" y="-240" width="1440" height="900"/></g><rect id="SVGID-32" data-name="SVGID" class="cls-1" x="12" y="8" width="26" height="24" rx="1" ry="1"/><g class="cls-9"><g class="cls-7"><rect class="cls-8" x="15" y="-2" width="33" height="34"/></g><rect id="SVGID-33" data-name="SVGID" class="cls-1" x="-757" y="-240" width="1440" height="900"/></g><rect id="SVGID-34" data-name="SVGID" class="cls-1" x="20" y="3" width="23" height="24" rx="1" ry="1"/><g class="cls-10"><g class="cls-7"><rect class="cls-11" x="-2.75" y="12.29" width="19.21" height="22.86"/></g><rect id="SVGID-35" data-name="SVGID" class="cls-1" x="-757" y="-240" width="1440" height="900"/></g><path id="SVGID-36" data-name="SVGID" class="cls-12" d="M9.63,17.74,2.42,28.6A1,1,0,0,0,2.7,30a1,1,0,0,0,.55.17h7.21a1,1,0,0,0,1-1V18.29a1,1,0,0,0-1-1A1,1,0,0,0,9.63,17.74Z"/><g class="cls-13"><g class="cls-14"><rect class="cls-11" x="38.49" y="12.2" width="19.21" height="22.86"/></g><rect id="SVGID-37" data-name="SVGID" class="cls-1" x="-628.04" y="-240.09" width="1440" height="900"/></g><path id="SVGID-38" data-name="SVGID" class="cls-12" d="M45.32,17.65l7.21,10.86a1,1,0,0,1-.28,1.38,1,1,0,0,1-.55.17H44.49a1,1,0,0,1-1-1V18.2a1,1,0,0,1,1-1A1,1,0,0,1,45.32,17.65Z"/><g class="cls-15"><g class="cls-16"><rect class="cls-17" x="9.52" y="18" width="36" height="34" rx="1" ry="1"/></g></g><g class="cls-18"><g class="cls-16"><g class="cls-19"><g class="cls-20"><g class="cls-21"><rect class="cls-22" x="4.52" y="13" width="46" height="44"/></g><g class="cls-15"><g class="cls-21"><rect class="cls-17" x="9.52" y="18" width="36" height="34" rx="1" ry="1"/></g></g><g class="cls-23"><g class="cls-24"><g class="cls-21"><path class="cls-25" d="M7.2,14.56H47.8L39.1,29.77a2,2,0,0,1-1.74,1H17.64a2,2,0,0,1-1.74-1Z"/></g></g></g><g class="cls-24"><g class="cls-21"><path class="cls-17" d="M7.2,14.56H47.8L39.1,29.77a2,2,0,0,1-1.74,1H17.64a2,2,0,0,1-1.74-1Z"/></g></g><g class="cls-26"><g class="cls-27"><g class="cls-21"><rect class="cls-25" x="17.64" y="39.37" width="19.72" height="8.04" rx="1" ry="1"/></g></g></g><g class="cls-27"><g class="cls-21"><rect class="cls-17" x="17.64" y="39.37" width="19.72" height="8.04" rx="1" ry="1"/></g></g></g></g></g></g><g class="cls-28"><g class="cls-16"><rect class="cls-29" x="20" y="3" width="23" height="12"/></g></g><g class="cls-30"><g class="cls-16"><rect class="cls-29" x="20" y="7" width="23" height="12"/></g></g></svg>