<svg xmlns="http://www.w3.org/2000/svg" xmlns:xlink="http://www.w3.org/1999/xlink" viewBox="0 0 57.27 64.24"><defs><style>.cls-1,.cls-2,.cls-3,.cls-6{fill:none;}.cls-1{clip-rule:evenodd;}.cls-3{fill-rule:evenodd;}.cls-4{clip-path:url(#clip-path);}.cls-5{clip-path:url(#clip-path-2);}.cls-6{stroke:#344b63;stroke-miterlimit:10;stroke-width:4px;}.cls-7{clip-path:url(#clip-path-3);}.cls-8{isolation:isolate;}.cls-9{clip-path:url(#clip-path-5);}.cls-10{clip-path:url(#clip-path-6);}.cls-11{fill:#fff;}.cls-12{clip-path:url(#clip-path-9);}.cls-13{fill:#10c786;}.cls-14{clip-path:url(#clip-path-11);}.cls-15{clip-path:url(#clip-path-13);}.cls-16{clip-path:url(#clip-path-15);}.cls-17{clip-path:url(#clip-path-17);}.cls-18{clip-path:url(#clip-path-19);}.cls-19{clip-path:url(#clip-path-21);}.cls-20{clip-path:url(#clip-path-23);}.cls-21{clip-path:url(#clip-path-25);}.cls-22{fill:#c2c5c4;}.cls-23{clip-path:url(#clip-path-27);}.cls-24{clip-path:url(#clip-path-29);}.cls-25{clip-path:url(#clip-path-31);}.cls-26{clip-path:url(#clip-path-33);}.cls-27{clip-path:url(#clip-path-35);}.cls-28{clip-path:url(#clip-path-37);}.cls-29{clip-path:url(#clip-path-38);}.cls-30{clip-path:url(#clip-path-41);}.cls-31{clip-path:url(#clip-path-43);}.cls-32{clip-path:url(#clip-path-45);}.cls-33{clip-path:url(#clip-path-47);}.cls-34{clip-path:url(#clip-path-48);}.cls-35{clip-path:url(#clip-path-51);}.cls-36{clip-path:url(#clip-path-53);}.cls-37{fill:#344b63;}.cls-38{clip-path:url(#clip-path-55);}</style><clipPath id="clip-path" transform="translate(-760.89 -126.87)"><path class="cls-1" d="M799.1,152.22v33.11c0,.92.14.77-.8.77H766.7c-.94,0-.8.15-.8-.77V141.67c0-.92-.14-.77.8-.77h19.71a2,2,0,0,1,1.35.53l11,10.06A1,1,0,0,1,799.1,152.22Zm-45.21-23.33h57.22v69.22H753.89Z"/></clipPath><clipPath id="clip-path-2" transform="translate(-760.89 -126.87)"><rect class="cls-2" width="1440" height="900"/></clipPath><clipPath id="clip-path-3" transform="translate(-760.89 -126.87)"><path class="cls-1" d="M799.1,152.22v33.11c0,.92.14.77-.8.77H766.7c-.94,0-.8.15-.8-.77V141.67c0-.92-.14-.77.8-.77h19.71a2,2,0,0,1,1.35.53l11,10.06A1,1,0,0,1,799.1,152.22Z"/></clipPath><clipPath id="clip-path-5" transform="translate(-760.89 -126.87)"><rect class="cls-2" x="753" y="119" width="69" height="80"/></clipPath><clipPath id="clip-path-6" transform="translate(-760.89 -126.87)"><rect class="cls-2" x="765" y="140" width="35" height="47"/></clipPath><clipPath id="clip-path-9" transform="translate(-760.89 -126.87)"><path class="cls-1" d="M787.33,131.87v-2.22l1.66,1.47,21.66,19.07,2,1.75h-22.3a3,3,0,0,1-3-3Zm1,1.33v-.88l-.66.3Zm21.28,17.74h-1.14l.85.75Zm-.76-1,.85.75.29-.75Zm-20.18-17.78.66.59v-.88Z"/></clipPath><clipPath id="clip-path-11" transform="translate(-760.89 -126.87)"><path class="cls-1" d="M788.33,131.87v17.07a2,2,0,0,0,2,2H810Zm-12-12H822v43.07H776.33Z"/></clipPath><clipPath id="clip-path-13" transform="translate(-760.89 -126.87)"><rect class="cls-2" x="769" y="150" width="3" height="2"/></clipPath><clipPath id="clip-path-15" transform="translate(-760.89 -126.87)"><rect class="cls-2" x="769" y="167" width="3" height="2"/></clipPath><clipPath id="clip-path-17" transform="translate(-760.89 -126.87)"><rect class="cls-2" x="775" y="150" width="3" height="2"/></clipPath><clipPath id="clip-path-19" transform="translate(-760.89 -126.87)"><rect class="cls-2" x="775" y="167" width="3" height="2"/></clipPath><clipPath id="clip-path-21" transform="translate(-760.89 -126.87)"><rect class="cls-2" x="780" y="150" width="3" height="2"/></clipPath><clipPath id="clip-path-23" transform="translate(-760.89 -126.87)"><rect class="cls-2" x="780" y="167" width="3" height="2"/></clipPath><clipPath id="clip-path-25" transform="translate(-760.89 -126.87)"><rect class="cls-2" x="769" y="155" width="15" height="2"/></clipPath><clipPath id="clip-path-27" transform="translate(-760.89 -126.87)"><rect class="cls-2" x="769" y="172" width="15" height="2"/></clipPath><clipPath id="clip-path-29" transform="translate(-760.89 -126.87)"><rect class="cls-2" x="769" y="159" width="19" height="2"/></clipPath><clipPath id="clip-path-31" transform="translate(-760.89 -126.87)"><rect class="cls-2" x="769" y="176" width="19" height="2"/></clipPath><clipPath id="clip-path-33" transform="translate(-760.89 -126.87)"><path class="cls-1" d="M795.71,159.77c0,4.34,3,7.86,6.79,7.86s6.79-3.52,6.79-7.86Zm-12-12h37.58v31.86H783.71Z"/></clipPath><clipPath id="clip-path-35" transform="translate(-760.89 -126.87)"><path class="cls-1" d="M795.71,159.77c0,4.34,3,7.86,6.79,7.86s6.79-3.52,6.79-7.86Z"/></clipPath><clipPath id="clip-path-37" transform="translate(-760.89 -126.87)"><rect class="cls-2" x="783" y="147" width="39" height="33"/></clipPath><clipPath id="clip-path-38" transform="translate(-760.89 -126.87)"><rect class="cls-2" x="795" y="159" width="15" height="9"/></clipPath><clipPath id="clip-path-41" transform="translate(-760.89 -126.87)"><path class="cls-1" d="M791.84,164h21.32v6.12H791.84Z"/></clipPath><clipPath id="clip-path-43" transform="translate(-760.89 -126.87)"><path class="cls-1" d="M795.71,178.23c0-4.34,3-7.86,6.79-7.86s6.79,3.52,6.79,7.86Zm-12,12h37.58V158.37H783.71Z"/></clipPath><clipPath id="clip-path-45" transform="translate(-760.89 -126.87)"><path class="cls-1" d="M795.71,178.23c0-4.34,3-7.86,6.79-7.86s6.79,3.52,6.79,7.86Z"/></clipPath><clipPath id="clip-path-47" transform="translate(-760.89 -126.87)"><rect class="cls-2" x="783" y="158" width="39" height="33"/></clipPath><clipPath id="clip-path-48" transform="translate(-760.89 -126.87)"><rect class="cls-2" x="795" y="170" width="15" height="9"/></clipPath><clipPath id="clip-path-51" transform="translate(-760.89 -126.87)"><rect class="cls-2" x="791.84" y="176.4" width="21.33" height="6.12"/></clipPath><clipPath id="clip-path-53" transform="translate(-760.89 -126.87)"><path class="cls-1" d="M793.88,157h17.24a.89.89,0,0,1,0,1.77H793.88a.89.89,0,0,1,0-1.77Z"/></clipPath><clipPath id="clip-path-55" transform="translate(-760.89 -126.87)"><path class="cls-1" d="M793.88,179.23h17.24a.89.89,0,0,1,0,1.77H793.88a.89.89,0,0,1,0-1.77Z"/></clipPath></defs><title>资源 7</title><g id="图层_2" data-name="图层 2"><g id="图层_1-2" data-name="图层 1"><g class="cls-4"><g class="cls-5"><path class="cls-6" d="M799.1,152.22v33.11c0,.92.14.77-.8.77H766.7c-.94,0-.8.15-.8-.77V141.67c0-.92-.14-.77.8-.77h19.71a2,2,0,0,1,1.35.53l11,10.06A1,1,0,0,1,799.1,152.22Z" transform="translate(-760.89 -126.87)"/></g></g><g class="cls-7"><g class="cls-5"><g class="cls-8"><g class="cls-9"><g class="cls-10"><rect class="cls-11" y="9.03" width="43.22" height="55.21"/></g><g class="cls-4"><g class="cls-10"><path class="cls-6" d="M799.1,152.22v33.11c0,.92.14.77-.8.77H766.7c-.94,0-.8.15-.8-.77V141.67c0-.92-.14-.77.8-.77h19.71a2,2,0,0,1,1.35.53l11,10.06A1,1,0,0,1,799.1,152.22Z" transform="translate(-760.89 -126.87)"/></g></g><g class="cls-12"><g class="cls-10"><rect class="cls-13" x="22.44" width="31.65" height="29.07"/></g></g><g class="cls-14"><g class="cls-10"><path class="cls-6" d="M788.33,131.87v17.07a2,2,0,0,0,2,2H810Z" transform="translate(-760.89 -126.87)"/></g></g></g></g></g></g><g class="cls-15"><g class="cls-5"><rect class="cls-13" x="3.11" y="18.13" width="13" height="12"/></g></g><g class="cls-16"><g class="cls-5"><rect class="cls-13" x="3.11" y="35.13" width="13" height="12"/></g></g><g class="cls-17"><g class="cls-5"><rect class="cls-13" x="9.11" y="18.13" width="13" height="12"/></g></g><g class="cls-18"><g class="cls-5"><rect class="cls-13" x="9.11" y="35.13" width="13" height="12"/></g></g><g class="cls-19"><g class="cls-5"><rect class="cls-13" x="14.11" y="18.13" width="13" height="12"/></g></g><g class="cls-20"><g class="cls-5"><rect class="cls-13" x="14.11" y="35.13" width="13" height="12"/></g></g><g class="cls-21"><g class="cls-5"><rect class="cls-22" x="3.11" y="23.13" width="25" height="12"/></g></g><g class="cls-23"><g class="cls-5"><rect class="cls-22" x="3.11" y="40.13" width="25" height="12"/></g></g><g class="cls-24"><g class="cls-5"><rect class="cls-22" x="3.11" y="27.13" width="29" height="12"/></g></g><g class="cls-25"><g class="cls-5"><rect class="cls-22" x="3.11" y="44.13" width="29" height="12"/></g></g><g class="cls-26"><g class="cls-5"><path class="cls-6" d="M795.71,159.77c0,4.34,3,7.86,6.79,7.86s6.79-3.52,6.79-7.86Z" transform="translate(-760.89 -126.87)"/></g></g><g class="cls-27"><g class="cls-5"><g class="cls-8"><g class="cls-28"><g class="cls-29"><rect class="cls-11" x="29.82" y="27.9" width="23.57" height="17.86"/></g><g class="cls-26"><g class="cls-29"><path class="cls-6" d="M795.71,159.77c0,4.34,3,7.86,6.79,7.86s6.79-3.52,6.79-7.86Z" transform="translate(-760.89 -126.87)"/></g></g><g class="cls-30"><g class="cls-29"><rect class="cls-13" x="25.95" y="32.1" width="31.33" height="16.12"/></g></g></g></g></g></g><g class="cls-31"><g class="cls-5"><path class="cls-6" d="M795.71,178.23c0-4.34,3-7.86,6.79-7.86s6.79,3.52,6.79,7.86Z" transform="translate(-760.89 -126.87)"/></g></g><g class="cls-32"><g class="cls-5"><g class="cls-8"><g class="cls-33"><g class="cls-34"><rect class="cls-11" x="29.82" y="38.5" width="23.57" height="17.86"/></g><g class="cls-31"><g class="cls-34"><path class="cls-6" d="M795.71,178.23c0-4.34,3-7.86,6.79-7.86s6.79,3.52,6.79,7.86Z" transform="translate(-760.89 -126.87)"/></g></g><g class="cls-35"><g class="cls-34"><rect class="cls-13" x="25.95" y="44.53" width="31.33" height="16.12"/></g></g></g></g></g></g><g class="cls-36"><g class="cls-5"><rect class="cls-37" x="27.11" y="25.13" width="29" height="11.77"/></g></g><g class="cls-38"><g class="cls-5"><rect class="cls-37" x="27.11" y="47.37" width="29" height="11.77"/></g></g></g></g></svg>