<svg id="图层_1" data-name="图层 1" xmlns="http://www.w3.org/2000/svg" xmlns:xlink="http://www.w3.org/1999/xlink" viewBox="0 0 71.02 20"><defs><style>.cls-1,.cls-2{fill:none;}.cls-1{clip-rule:evenodd;}.cls-3{clip-path:url(#clip-path);}.cls-4{clip-path:url(#clip-path-2);}.cls-5{fill:#2d353c;}.cls-6{clip-path:url(#clip-path-3);}.cls-7{fill:#22bf84;}.cls-8{clip-path:url(#clip-path-5);}</style><clipPath id="clip-path"><path class="cls-1" d="M21.44,1v.51A.46.46,0,0,1,21,2H19.66l.76,1.64a.46.46,0,0,1-.46.47H18a.47.47,0,0,1-.46-.48L16.78,2H15l-.23,1.7a.46.46,0,0,1-.45.41h-3a.46.46,0,0,1-.45-.53L11.34,1a.46.46,0,0,1,.46-.4H21A.46.46,0,0,1,21.44,1ZM11.1,12.1l1.2,5a.47.47,0,0,1-.45.59H9.37a.47.47,0,0,1-.45-.37l-1.11-5a.47.47,0,0,1,.44-.58h2.41A.46.46,0,0,1,11.1,12.1Zm-11-1.5V9.74a.47.47,0,0,1,.46-.46h20.8a.46.46,0,0,1,.45.46v.86a.46.46,0,0,1-.45.47H.55A.47.47,0,0,1,.09,10.6Zm1-6.07H20.65a.46.46,0,0,1,.46.39l.59,3.37a.48.48,0,0,1-.46.57h-3.5a.47.47,0,0,1-.46-.43l-.2-2L17,6H5.15l-.05.43-.2,2a.48.48,0,0,1-.46.43H.63a.48.48,0,0,1-.46-.55L.61,4.94A.47.47,0,0,1,1.07,4.53ZM10.71,1v.51a.47.47,0,0,1-.46.47H8.92l.76,1.64a.47.47,0,0,1-.46.47h-2a.47.47,0,0,1-.46-.48L6.05,2H4.29L4.06,3.7a.47.47,0,0,1-.46.41h-3a.46.46,0,0,1-.44-.53L.61,1a.45.45,0,0,1,.45-.4h9.19A.47.47,0,0,1,10.71,1ZM4.18,17.69H1.69a.45.45,0,0,1-.44-.37l-1.12-5a.47.47,0,0,1,.44-.58H3a.46.46,0,0,1,.44.36l1.2,5A.47.47,0,0,1,4.18,17.69Zm17.52,1v.84a.46.46,0,0,1-.46.47H.45A.45.45,0,0,1,0,19.54v-.86a.46.46,0,0,1,.45-.47H15.07l2-6.14a.46.46,0,0,1,.44-.33h3.3a.47.47,0,0,1,.44.63l-1.89,5.84h1.9A.47.47,0,0,1,21.7,18.69Z"/></clipPath><clipPath id="clip-path-2"><rect class="cls-2" x="-135" y="-22" width="1440" height="900"/></clipPath><clipPath id="clip-path-3"><path class="cls-1" d="M53.52,3.05V5.16a.46.46,0,0,1-.45.47H49.53a.47.47,0,0,1-.46-.47V1.53a.48.48,0,0,1,.46-.48h7.92L57.36.58A.49.49,0,0,1,57.82,0h3.81a.47.47,0,0,1,.45.36l.19.69h8.11a.46.46,0,0,1,.45.47V5.15a.47.47,0,0,1-.47.48H66.85a.47.47,0,0,1-.47-.48V3.05ZM70.13,20H49.53a.47.47,0,0,1-.46-.47v-.84a.48.48,0,0,1,.46-.48h8V12.42h-8a.47.47,0,0,1-.46-.47V10.89a.47.47,0,0,1,.46-.47h8V8.31h-8a.45.45,0,0,1-.44-.46V6.77a.45.45,0,0,1,.44-.46H70.39a.45.45,0,0,1,.44.46V7.85a.45.45,0,0,1-.44.46h-8v2.11h8a.46.46,0,0,1,.45.47V12a.46.46,0,0,1-.45.47h-8v5.79h4.56l-.82-3.75a.48.48,0,0,1,.44-.61h3.07a.48.48,0,0,1,.44.35L71,19a.69.69,0,0,1-.57,1Z"/></clipPath><clipPath id="clip-path-5"><path class="cls-1" d="M29.47,3.05V5.16a.46.46,0,0,1-.45.47H25.48A.47.47,0,0,1,25,5.16V1.53a.48.48,0,0,1,.46-.48h7.91L33.31.58A.49.49,0,0,1,33.77,0h3.81A.48.48,0,0,1,38,.36l.19.69h8.11a.46.46,0,0,1,.45.47V5.15a.47.47,0,0,1-.47.48H42.8a.47.47,0,0,1-.47-.48V3.05Zm16.6,17H25.48a.47.47,0,0,1-.46-.47v-.84a.48.48,0,0,1,.46-.48h8V12.42h-8A.47.47,0,0,1,25,12V10.89a.47.47,0,0,1,.45-.47h8V8.31h-8A.45.45,0,0,1,25,7.85V6.77a.45.45,0,0,1,.44-.46H46.34a.45.45,0,0,1,.44.46V7.85a.45.45,0,0,1-.44.46h-8v2.11h8a.47.47,0,0,1,.45.47V12a.47.47,0,0,1-.45.47h-8v5.79h4.56l-.82-3.75a.48.48,0,0,1,.44-.61h3.07a.48.48,0,0,1,.44.35L46.92,19a.69.69,0,0,1-.57,1Z"/></clipPath></defs><title>画板 1</title><g class="cls-3"><g class="cls-4"><rect class="cls-5" x="-5" y="-4.45" width="31.8" height="29.46"/></g></g><g class="cls-6"><g class="cls-4"><rect class="cls-7" x="44.07" y="-5" width="31.95" height="30"/></g></g><g class="cls-8"><g class="cls-4"><rect class="cls-7" x="20.02" y="-5" width="31.95" height="30"/></g></g></svg>