<svg xmlns="http://www.w3.org/2000/svg" xmlns:xlink="http://www.w3.org/1999/xlink" viewBox="0 0 20.58 17.65"><defs><style>.cls-1,.cls-2{fill:none;}.cls-1{clip-rule:evenodd;}.cls-3{clip-path:url(#clip-path);}.cls-4{clip-path:url(#clip-path-2);}.cls-5{fill:#212f3e;}</style><clipPath id="clip-path" transform="translate(-1276 -26.15)"><path class="cls-1" d="M1288.14,36H1283a1,1,0,0,1,0-2h5.2l-1.15-1.15a1,1,0,0,1,1.41-1.41l2.83,2.82a1,1,0,0,1,0,1.42l-2.83,2.83a1,1,0,0,1-1.41,0,1,1,0,0,1,0-1.42Z"/></clipPath><clipPath id="clip-path-2" transform="translate(-1276 -26.15)"><rect class="cls-2" width="1440" height="900"/></clipPath></defs><title>资源 4</title><g id="图层_2" data-name="图层 2"><g id="图层_1-2" data-name="图层 1"><g class="cls-3"><g class="cls-4"><rect class="cls-5" x="1" width="19.58" height="17.65"/></g></g><path class="cls-5" d="M1278.86,43a2.9,2.9,0,0,1-2.86-2.75V29.8a2.93,2.93,0,0,1,3-2.8h6a1,1,0,0,1,0,2h-6a.91.91,0,0,0-1,.85V40.2a.91.91,0,0,0,1,.8h6a1,1,0,0,1,0,2h-6.14Z" transform="translate(-1276 -26.15)"/></g></g></svg>