<svg xmlns="http://www.w3.org/2000/svg" xmlns:xlink="http://www.w3.org/1999/xlink" viewBox="0 0 81.02 30"><defs><style>.cls-1,.cls-2{fill:none;}.cls-1{clip-rule:evenodd;}.cls-3{clip-path:url(#clip-path);}.cls-4{clip-path:url(#clip-path-2);}.cls-5{fill:#2d353c;}.cls-6{clip-path:url(#clip-path-3);}.cls-7{fill:#22bf84;}.cls-8{clip-path:url(#clip-path-5);}</style><clipPath id="clip-path" transform="translate(-130 -17)"><path class="cls-1" d="M156.45,23v.51A.47.47,0,0,1,156,24h-1.33l.77,1.64a.47.47,0,0,1-.46.47h-2a.47.47,0,0,1-.46-.48L151.79,24H150l-.23,1.7a.46.46,0,0,1-.45.41h-3a.46.46,0,0,1-.44-.53l.44-2.63a.45.45,0,0,1,.45-.4H156A.47.47,0,0,1,156.45,23ZM146.1,34.1l1.2,5a.47.47,0,0,1-.45.59h-2.48a.48.48,0,0,1-.45-.37l-1.11-5a.47.47,0,0,1,.45-.58h2.4A.46.46,0,0,1,146.1,34.1Zm-11-1.5v-.86a.45.45,0,0,1,.45-.46h20.8a.45.45,0,0,1,.45.46v.86a.45.45,0,0,1-.45.46h-20.8A.45.45,0,0,1,135.1,32.6Zm1-6.07h19.59a.46.46,0,0,1,.45.39l.59,3.37a.47.47,0,0,1-.45.56h-3.5a.48.48,0,0,1-.47-.43l-.2-2L152,28H140.15l-.05.43-.2,2a.46.46,0,0,1-.46.43h-3.81a.47.47,0,0,1-.46-.54l.44-3.37A.47.47,0,0,1,136.07,26.53ZM145.71,23v.51a.46.46,0,0,1-.46.47h-1.32l.75,1.64a.47.47,0,0,1-.46.47h-2a.48.48,0,0,1-.46-.48L141.05,24h-1.76l-.23,1.7a.47.47,0,0,1-.45.41h-3a.46.46,0,0,1-.45-.53l.44-2.63a.46.46,0,0,1,.45-.4h9.19A.46.46,0,0,1,145.71,23Zm-6.53,16.67h-2.49a.47.47,0,0,1-.44-.37l-1.12-5a.47.47,0,0,1,.45-.58H138a.47.47,0,0,1,.45.36l1.19,5A.47.47,0,0,1,139.18,39.69Zm17.53,1v.84a.47.47,0,0,1-.46.47h-20.8a.46.46,0,0,1-.45-.46v-.86a.46.46,0,0,1,.45-.47h14.62l2-6.14a.47.47,0,0,1,.44-.33h3.3a.47.47,0,0,1,.44.63l-1.88,5.84h1.9A.48.48,0,0,1,156.71,40.69Z"/></clipPath><clipPath id="clip-path-2" transform="translate(-130 -17)"><rect class="cls-2" width="1440" height="900"/></clipPath><clipPath id="clip-path-3" transform="translate(-130 -17)"><path class="cls-1" d="M188.52,25.05v2.11a.46.46,0,0,1-.45.47h-3.54a.46.46,0,0,1-.45-.47V23.53a.46.46,0,0,1,.45-.48h7.92l-.09-.47a.49.49,0,0,1,.46-.58h3.81a.46.46,0,0,1,.45.36l.19.69h8.11a.46.46,0,0,1,.45.47v3.63a.48.48,0,0,1-.47.48h-3.51a.48.48,0,0,1-.47-.48v-2.1Zm16.61,17h-20.6a.46.46,0,0,1-.45-.47v-.84a.47.47,0,0,1,.45-.48h8v-5.8h-8a.46.46,0,0,1-.45-.46V32.88a.47.47,0,0,1,.45-.47h8v-2.1h-8a.45.45,0,0,1-.44-.46V28.77a.44.44,0,0,1,.44-.46h20.87a.45.45,0,0,1,.44.46v1.08a.45.45,0,0,1-.44.46h-8v2.1h8a.47.47,0,0,1,.45.47V34a.46.46,0,0,1-.45.46h-8v5.8h4.56l-.83-3.75a.48.48,0,0,1,.44-.61h3.07a.46.46,0,0,1,.44.35L206,41a.7.7,0,0,1-.58,1Z"/></clipPath><clipPath id="clip-path-5" transform="translate(-130 -17)"><path class="cls-1" d="M164.47,25.05v2.11a.46.46,0,0,1-.45.47h-3.54a.46.46,0,0,1-.45-.47V23.53a.46.46,0,0,1,.45-.48h7.92l-.09-.47a.49.49,0,0,1,.46-.58h3.81a.46.46,0,0,1,.45.36l.19.69h8.11a.46.46,0,0,1,.45.47v3.63a.48.48,0,0,1-.47.48H177.8a.48.48,0,0,1-.47-.48v-2.1Zm16.61,17h-20.6a.46.46,0,0,1-.45-.47v-.84a.47.47,0,0,1,.45-.48h8v-5.8h-8A.46.46,0,0,1,160,34V32.88a.47.47,0,0,1,.45-.47h8v-2.1h-8a.45.45,0,0,1-.44-.46V28.77a.44.44,0,0,1,.44-.46h20.87a.45.45,0,0,1,.44.46v1.08a.45.45,0,0,1-.44.46h-8v2.1h8a.47.47,0,0,1,.45.47V34a.46.46,0,0,1-.45.46h-8v5.8h4.57l-.83-3.75a.48.48,0,0,1,.44-.61h3.07a.46.46,0,0,1,.44.35l.93,4.83a.7.7,0,0,1-.58,1Z"/></clipPath></defs><title>资源 2</title><g id="图层_2" data-name="图层 2"><g id="图层_1-2" data-name="图层 1"><g class="cls-3"><g class="cls-4"><rect class="cls-5" y="0.55" width="31.8" height="29.46"/></g></g><g class="cls-6"><g class="cls-4"><rect class="cls-7" x="49.07" width="31.95" height="30"/></g></g><g class="cls-8"><g class="cls-4"><rect class="cls-7" x="25.02" width="31.95" height="30"/></g></g></g></g></svg>