<svg xmlns="http://www.w3.org/2000/svg" xmlns:xlink="http://www.w3.org/1999/xlink" viewBox="0 0 17 21.95"><defs><style>.cls-1{fill:none;}.cls-2{clip-path:url(#clip-path);}.cls-3{clip-path:url(#clip-path-2);}.cls-4{fill:#212f3e;}</style><clipPath id="clip-path" transform="translate(-1220 -27.05)"><path class="cls-1" d="M1226,42h5a1,1,0,0,1,0,2h-5a1,1,0,0,1,0-2Z"/></clipPath><clipPath id="clip-path-2" transform="translate(-1220 -27.05)"><rect class="cls-1" width="1440" height="900"/></clipPath></defs><title>资源 3</title><g id="图层_2" data-name="图层 2"><g id="图层_1-2" data-name="图层 1"><g class="cls-2"><g class="cls-3"><rect class="cls-4" y="9.95" width="17" height="12"/></g></g><path class="cls-4" d="M1236,40h-15a1,1,0,0,1-.46-1.89,2.69,2.69,0,0,0,1.46-2.19V34c0-4,2.73-6.95,6.5-6.95s6.5,3,6.5,7v2a2.76,2.76,0,0,0,1.47,2.12A1,1,0,0,1,1236,40Zm-12.6-2h10.2a4.86,4.86,0,0,1-.6-1.91V34c0-2.87-1.89-4.95-4.5-4.95s-4.5,2-4.5,4.95v2A4.92,4.92,0,0,1,1223.4,38Z" transform="translate(-1220 -27.05)"/></g></g></svg>