<svg xmlns="http://www.w3.org/2000/svg" xmlns:xlink="http://www.w3.org/1999/xlink" viewBox="0 0 57.11 65.13"><defs><style>.cls-1,.cls-2,.cls-28,.cls-3,.cls-6{fill:none;}.cls-1{clip-rule:evenodd;}.cls-3{fill-rule:evenodd;}.cls-4{clip-path:url(#clip-path);}.cls-5{clip-path:url(#clip-path-2);}.cls-28,.cls-6{stroke:#344b63;}.cls-6{stroke-miterlimit:10;stroke-width:4px;}.cls-7{clip-path:url(#clip-path-3);}.cls-8{clip-path:url(#clip-path-5);}.cls-9{clip-path:url(#clip-path-6);}.cls-10{fill:#fff;}.cls-11{clip-path:url(#clip-path-9);}.cls-12{fill:#10c786;}.cls-13{clip-path:url(#clip-path-11);}.cls-14{clip-path:url(#clip-path-13);}.cls-15{clip-path:url(#clip-path-15);}.cls-16{clip-path:url(#clip-path-17);}.cls-17{clip-path:url(#clip-path-19);}.cls-18{clip-path:url(#clip-path-21);}.cls-19{clip-path:url(#clip-path-23);}.cls-20{clip-path:url(#clip-path-25);}.cls-21{fill:#c2c5c4;}.cls-22{clip-path:url(#clip-path-27);}.cls-23{clip-path:url(#clip-path-29);}.cls-24{clip-path:url(#clip-path-31);}.cls-25{clip-path:url(#clip-path-33);}.cls-26{clip-path:url(#clip-path-35);}.cls-27{clip-path:url(#clip-path-36);}.cls-28{stroke-linejoin:round;stroke-width:2px;}.cls-29{clip-path:url(#clip-path-37);}.cls-30{fill:#344b63;}</style><clipPath id="clip-path" transform="translate(-555.89 -126.87)"><path class="cls-1" d="M594.1,152.22v33.11c0,.92.14.77-.8.77H561.7c-.94,0-.8.15-.8-.77V141.67c0-.92-.14-.77.8-.77h19.71a2,2,0,0,1,1.35.53l11,10.06A1,1,0,0,1,594.1,152.22Zm-45.21-23.33h57.22v69.22H548.89Z"/></clipPath><clipPath id="clip-path-2" transform="translate(-555.89 -126.87)"><rect class="cls-2" width="1440" height="900"/></clipPath><clipPath id="clip-path-3" transform="translate(-555.89 -126.87)"><path class="cls-1" d="M594.1,152.22v33.11c0,.92.14.77-.8.77H561.7c-.94,0-.8.15-.8-.77V141.67c0-.92-.14-.77.8-.77h19.71a2,2,0,0,1,1.35.53l11,10.06A1,1,0,0,1,594.1,152.22Z"/></clipPath><clipPath id="clip-path-5" transform="translate(-555.89 -126.87)"><rect class="cls-2" x="548" y="119" width="69" height="80"/></clipPath><clipPath id="clip-path-6" transform="translate(-555.89 -126.87)"><rect class="cls-2" x="560" y="140" width="35" height="47"/></clipPath><clipPath id="clip-path-9" transform="translate(-555.89 -126.87)"><path class="cls-1" d="M582.33,131.87v-2.22l1.66,1.47,21.66,19.07,2,1.75h-22.3a3,3,0,0,1-3-3Zm1,1.33v-.88l-.66.3Zm21.28,17.74h-1.14l.85.75Zm-.76-1,.85.75.29-.75Zm-20.18-17.78.66.59v-.88Z"/></clipPath><clipPath id="clip-path-11" transform="translate(-555.89 -126.87)"><path class="cls-1" d="M583.33,131.87v17.07a2,2,0,0,0,2,2H605Zm-12-12H617v43.07H571.33Z"/></clipPath><clipPath id="clip-path-13" transform="translate(-555.89 -126.87)"><rect class="cls-2" x="565" y="150" width="4" height="2"/></clipPath><clipPath id="clip-path-15" transform="translate(-555.89 -126.87)"><rect class="cls-2" x="565" y="167" width="4" height="2"/></clipPath><clipPath id="clip-path-17" transform="translate(-555.89 -126.87)"><rect class="cls-2" x="570" y="150" width="4" height="2"/></clipPath><clipPath id="clip-path-19" transform="translate(-555.89 -126.87)"><rect class="cls-2" x="570" y="167" width="4" height="2"/></clipPath><clipPath id="clip-path-21" transform="translate(-555.89 -126.87)"><rect class="cls-2" x="575" y="150" width="4" height="2"/></clipPath><clipPath id="clip-path-23" transform="translate(-555.89 -126.87)"><rect class="cls-2" x="575" y="167" width="4" height="2"/></clipPath><clipPath id="clip-path-25" transform="translate(-555.89 -126.87)"><rect class="cls-2" x="565" y="154" width="14" height="2"/></clipPath><clipPath id="clip-path-27" transform="translate(-555.89 -126.87)"><rect class="cls-2" x="565" y="172" width="14" height="2"/></clipPath><clipPath id="clip-path-29" transform="translate(-555.89 -126.87)"><rect class="cls-2" x="565" y="159" width="26" height="2"/></clipPath><clipPath id="clip-path-31" transform="translate(-555.89 -126.87)"><rect class="cls-2" x="565" y="176" width="26" height="2"/></clipPath><clipPath id="clip-path-33" transform="translate(-555.89 -126.87)"><path class="cls-1" d="M602,160h5v23.31a2,2,0,0,1-.47,1.29l-2,2.4-2-2.4a2,2,0,0,1-.47-1.29Z"/></clipPath><clipPath id="clip-path-35" transform="translate(-555.89 -126.87)"><rect class="cls-2" x="597" y="155" width="15" height="37"/></clipPath><clipPath id="clip-path-36" transform="translate(-555.89 -126.87)"><rect class="cls-2" x="602" y="160" width="5" height="27"/></clipPath><clipPath id="clip-path-37" transform="translate(-555.89 -126.87)"><rect class="cls-2" x="601" y="183.4" width="7" height="3.6"/></clipPath></defs><title>资源 6</title><g id="图层_2" data-name="图层 2"><g id="图层_1-2" data-name="图层 1"><g class="cls-4"><g class="cls-5"><path class="cls-6" d="M594.1,152.22v33.11c0,.92.14.77-.8.77H561.7c-.94,0-.8.15-.8-.77V141.67c0-.92-.14-.77.8-.77h19.71a2,2,0,0,1,1.35.53l11,10.06A1,1,0,0,1,594.1,152.22Z" transform="translate(-555.89 -126.87)"/></g></g><g class="cls-7"><g class="cls-5"><g class="cls-8"><g class="cls-9"><rect class="cls-10" y="9.03" width="43.22" height="55.21"/></g><g class="cls-4"><g class="cls-9"><path class="cls-6" d="M594.1,152.22v33.11c0,.92.14.77-.8.77H561.7c-.94,0-.8.15-.8-.77V141.67c0-.92-.14-.77.8-.77h19.71a2,2,0,0,1,1.35.53l11,10.06A1,1,0,0,1,594.1,152.22Z" transform="translate(-555.89 -126.87)"/></g></g><g class="cls-11"><g class="cls-9"><rect class="cls-12" x="22.44" width="31.65" height="29.07"/></g></g><g class="cls-13"><g class="cls-9"><path class="cls-6" d="M583.33,131.87v17.07a2,2,0,0,0,2,2H605Z" transform="translate(-555.89 -126.87)"/></g></g></g></g></g><g class="cls-14"><g class="cls-5"><rect class="cls-12" x="4.11" y="18.13" width="14" height="12"/></g></g><g class="cls-15"><g class="cls-5"><rect class="cls-12" x="4.11" y="35.13" width="14" height="12"/></g></g><g class="cls-16"><g class="cls-5"><rect class="cls-12" x="9.11" y="18.13" width="14" height="12"/></g></g><g class="cls-17"><g class="cls-5"><rect class="cls-12" x="9.11" y="35.13" width="14" height="12"/></g></g><g class="cls-18"><g class="cls-5"><rect class="cls-12" x="14.11" y="18.13" width="14" height="12"/></g></g><g class="cls-19"><g class="cls-5"><rect class="cls-12" x="14.11" y="35.13" width="14" height="12"/></g></g><g class="cls-20"><g class="cls-5"><rect class="cls-21" x="4.11" y="22.13" width="24" height="12"/></g></g><g class="cls-22"><g class="cls-5"><rect class="cls-21" x="4.11" y="40.13" width="24" height="12"/></g></g><g class="cls-23"><g class="cls-5"><rect class="cls-21" x="4.11" y="27.13" width="36" height="12"/></g></g><g class="cls-24"><g class="cls-5"><rect class="cls-21" x="4.11" y="44.13" width="36" height="12"/></g></g><g class="cls-25"><g class="cls-5"><g class="cls-26"><g class="cls-27"><rect class="cls-12" x="41.11" y="28.13" width="15" height="37"/><path class="cls-28" d="M602,160h5v23.31a2,2,0,0,1-.47,1.29l-2,2.4-2-2.4a2,2,0,0,1-.47-1.29Z" transform="translate(-555.89 -126.87)"/></g><g class="cls-29"><g class="cls-27"><rect class="cls-30" x="40.11" y="51.53" width="17" height="13.6"/></g></g></g></g></g><path class="cls-28" d="M602,160h5v23.31a2,2,0,0,1-.47,1.29l-2,2.4-2-2.4a2,2,0,0,1-.47-1.29Z" transform="translate(-555.89 -126.87)"/></g></g></svg>